# Blender v2.79 (sub 0) OBJ File: 'TheVile.blend'
# www.blender.org
mtllib TheVile.mtl
o Vile_default
v 2.180790 9.966257 -0.142945
v 2.069069 8.422617 -1.022713
v 2.045486 9.952969 -0.486702
v 1.193466 8.422617 -1.836243
v -0.136703 9.966255 -1.966645
v -0.002632 8.422617 -2.134026
v -0.810593 9.966257 -2.025872
v -1.198730 8.422617 -1.836243
v -1.887634 9.966255 -1.520440
v -2.074326 8.422617 -1.022713
v -2.290169 9.966257 -0.667756
v -2.394814 8.422615 0.088607
v 0.746750 9.966257 2.091896
v 0.120636 9.966257 2.010124
v -0.002632 8.422617 2.311233
v -1.198730 8.422615 2.013450
v 1.422012 9.966257 1.906669
v 1.193466 8.422615 2.013450
v 2.152870 9.966257 0.940391
v 2.069069 8.422615 1.199920
v 2.389553 8.422615 0.088607
v 2.389553 -19.192165 0.088609
v 2.069069 -19.192165 1.199921
v 2.069069 -19.192165 -1.022697
v 1.193466 -19.192165 2.013459
v 1.193466 -19.192165 -1.836242
v -0.002632 -19.192165 2.311234
v -0.002632 -19.192165 -2.134017
v -1.198730 -19.192165 2.013459
v -1.198730 -19.192165 -1.836242
v -2.074326 -19.192165 1.199921
v -2.074326 -19.192165 -1.022697
v -2.394814 -19.192165 0.088609
v -2.074326 8.422615 1.199920
v 1.559174 9.966257 0.582550
v 1.745216 9.966257 -0.342659
v -0.453407 9.966257 -1.352578
v 0.094482 9.966257 -1.613831
v 1.058922 9.966257 1.231697
v -1.156250 9.966255 -1.063752
v -1.648949 9.966257 -0.364861
v -1.724785 9.966255 0.556953
v 0.412987 9.966257 1.428947
v -0.129837 9.966255 1.548385
v -2.420273 81.894516 0.286000
v -2.977356 75.847229 0.286000
v 2.413139 81.894516 0.286000
v 2.970211 75.847229 0.286000
v -2.977356 43.441029 0.286001
v -3.081635 16.858938 0.298881
v -1.489738 43.403713 0.285994
v -1.497429 16.855017 0.327125
v -1.671066 87.963135 0.285999
v 1.663925 87.963135 0.285999
v 1.512444 16.829504 0.275947
v 2.966621 16.845762 0.280578
v 1.372253 43.403713 0.285994
v 2.970211 43.441029 0.286001
v -3.929314 43.441029 -0.067675
v -3.929314 75.891006 -0.067676
v -3.917168 16.822496 -0.050614
v -1.003357 43.441029 -0.067675
v -0.970726 16.800297 -0.047364
v -0.003571 45.654549 -0.067675
v -0.003571 46.594337 0.285993
v 0.885880 43.441029 -0.067675
v 0.855614 16.886393 -0.118966
v 3.922192 43.441029 -0.067675
v 3.906731 16.873295 -0.121331
v 3.922192 75.891006 -0.067676
v 3.359737 81.996582 -0.067676
v 2.605946 88.102509 -0.067677
v 1.335968 94.776199 -0.067677
v -0.003571 94.208069 0.285999
v -1.343109 94.776199 -0.067677
v -2.613106 88.102509 -0.067677
v -3.366882 81.996582 -0.067676
v 2.970211 75.847229 -0.421360
v -2.977356 75.847229 -0.421360
v 2.413139 81.894516 -0.421360
v -2.420273 81.894516 -0.421360
v -1.511841 16.759743 -0.372361
v -2.969139 16.775660 -0.358254
v -1.489738 43.403709 -0.421358
v -2.977356 43.441029 -0.421358
v 1.663925 87.963135 -0.421360
v -1.671066 87.963135 -0.421360
v 2.970211 43.441029 -0.421358
v 2.951370 16.929384 -0.420655
v 1.372253 43.403709 -0.421358
v 1.525848 16.915102 -0.425057
v -0.003571 46.594334 -0.421358
v -0.003571 94.208069 -0.421360
v -0.659271 14.981310 0.937110
v -2.046280 14.865513 0.938392
v 0.575905 14.700554 -0.380906
v 2.071083 14.635632 -0.381379
v 0.165665 13.456255 1.478591
v -1.209473 13.218491 1.536102
v -0.216270 13.254780 -0.651971
v 1.270035 13.111412 -0.774834
v -2.739388 14.764185 0.661170
v -1.805389 13.070288 1.261176
v -0.151009 14.939003 0.689536
v 0.661804 13.462460 1.154373
v 0.000000 14.738483 -0.569695
v -0.709732 13.317532 -0.831994
v 2.728767 14.561796 -0.575707
v 1.921387 13.180906 -1.022072
v 1.685654 10.645809 1.686203
v -0.024048 11.342310 2.104309
v 0.941719 12.156321 1.779998
v 1.861671 11.251947 1.346969
v 2.146656 10.515314 0.627365
v -0.492645 10.903032 1.989982
v 1.296532 12.442368 1.496116
v -0.654877 14.764833 0.227477
v -2.045792 14.654289 0.226585
v 0.626770 14.881315 -1.038788
v 2.023994 14.819818 -1.038155
v 0.181267 13.196901 0.669929
v -1.183884 12.962828 0.714095
v -0.168045 13.432720 -1.471985
v 1.223763 13.286425 -1.596650
v -2.738441 14.719328 0.498657
v -1.794556 12.989828 0.964157
v -0.150513 14.869549 0.488586
v 0.668343 13.365591 0.810317
v 0.026917 14.790001 -0.850999
v -0.677795 13.387178 -1.270646
v 2.718819 14.613201 -0.840989
v 1.892838 13.233076 -1.346238
v -0.117889 11.031244 1.330505
v 1.445511 10.646421 1.147918
v 0.831940 11.865969 1.001274
v 1.706375 11.292082 0.944213
v 1.756187 10.680880 0.433959
v 1.181084 12.330189 1.019592
v -0.602875 10.760695 1.507087
v -1.887222 11.175753 -1.262543
v -1.791771 10.632368 -1.544884
v -2.171112 10.497911 -0.395165
v -1.239281 12.343021 -1.379731
v -0.918983 12.056625 -1.672234
v 0.045067 11.256369 -2.007813
v 0.501732 10.875425 -1.951340
v 0.163712 10.973631 -1.319390
v -1.424309 10.646421 -0.902802
v -0.875931 11.867340 -0.909051
v -1.662437 11.235725 -0.766320
v -1.778107 10.680349 -0.251046
v -1.236336 12.256323 -0.955773
v 0.564491 10.730268 -1.741379
v -2.253075 9.893942 0.454536
v -0.003571 100.313614 -0.067677
vt 0.492188 0.893555
vt 0.492188 0.881836
vt 0.259277 0.893555
vt 0.244141 0.883789
vt 0.243164 0.890625
vt 0.259277 0.881836
vt 0.492188 0.871094
vt 0.259277 0.871094
vt 0.492188 0.859863
vt 0.259277 0.859863
vt 0.492188 0.848633
vt 0.259277 0.848633
vt 0.492188 0.838867
vt 0.246094 0.853516
vt 0.245117 0.864258
vt 0.245117 0.873047
vt 0.259277 0.838867
vt 0.492188 0.827637
vt 0.259277 0.827637
vt 0.492188 0.816895
vt 0.259277 0.816895
vt 0.492188 0.806152
vt 0.259277 0.806152
vt 0.492188 0.794434
vt 0.259277 0.794434
vt 0.492188 0.783691
vt 0.246094 0.791016
vt 0.246094 0.800781
vt 0.246094 0.814453
vt 0.246094 0.821289
vt 0.246094 0.827148
vt 0.259277 0.783691
vt 0.492188 0.772461
vt 0.259277 0.772461
vt 0.492188 0.761719
vt 0.259277 0.761719
vt 0.244141 0.763672
vt 0.246094 0.788086
vt 0.205078 0.779297
vt 0.207031 0.789062
vt 0.218750 0.779297
vt 0.192383 0.778320
vt 0.187500 0.789062
vt 0.176758 0.777344
vt 0.171875 0.788086
vt 0.185547 0.794922
vt 0.208008 0.794922
vt 0.216797 0.793945
vt 0.220703 0.790039
vt 0.223633 0.784180
vt 0.228516 0.774414
vt 0.168945 0.793945
vt 0.158203 0.775391
vt 0.160156 0.767578
vt 0.152344 0.787109
vt 0.148438 0.794922
vt 0.230469 0.765625
vt 0.224609 0.770508
vt 0.215820 0.774414
vt 0.204102 0.774414
vt 0.194336 0.774414
vt 0.178711 0.772461
vt 0.228516 0.887207
vt 0.228516 0.877441
vt 0.014648 0.887207
vt 0.014648 0.877441
vt 0.014648 0.866211
vt 0.228516 0.866211
vt 0.014648 0.857422
vt 0.228516 0.857422
vt 0.228516 0.774414
vt 0.230469 0.765625
vt 0.224609 0.770508
vt 0.223633 0.784180
vt 0.218750 0.779297
vt 0.220703 0.790039
vt 0.215820 0.774414
vt 0.204102 0.774414
vt 0.205078 0.779297
vt 0.207031 0.789062
vt 0.216797 0.793945
vt 0.192383 0.778320
vt 0.171875 0.788086
vt 0.168945 0.793945
vt 0.185547 0.794922
vt 0.187500 0.789062
vt 0.176758 0.777344
vt 0.208008 0.794922
vt 0.152344 0.787109
vt 0.148438 0.794922
vt 0.158203 0.775391
vt 0.160156 0.767578
vt 0.178711 0.772461
vt 0.194336 0.774414
vt 0.107422 0.932617
vt 0.054688 0.945312
vt 0.107422 0.960938
vt 0.157227 0.966797
vt 0.158203 0.925781
vt 0.157227 0.915039
vt 0.105469 0.922852
vt 0.048828 0.934570
vt 0.001953 0.946289
vt 0.048828 0.959961
vt 0.105469 0.970703
vt 0.155273 0.977539
vt 0.470703 0.946289
vt 0.496094 0.929688
vt 0.493164 0.917969
vt 0.208984 0.921875
vt 0.208008 0.971680
vt 0.208984 0.911133
vt 0.492188 0.907227
vt 0.498047 0.936523
vt 0.481445 0.946289
vt 0.496094 0.962891
vt 0.492188 0.975586
vt 0.491211 0.985352
vt 0.208008 0.982422
vt 0.497070 0.956055
vt 0.036133 0.970703
vt 0.037109 0.966797
vt 0.039062 0.969727
vt 0.038086 0.992188
vt 0.037109 0.989258
vt 0.033203 0.991211
vt 0.029297 0.967773
vt 0.022461 0.968750
vt 0.027344 0.995117
vt 0.016602 0.971680
vt 0.020508 0.995117
vt 0.012695 0.991211
vt 0.013672 0.974609
vt 0.011719 0.970703
vt 0.010742 0.995117
vt 0.028320 0.797852
vt 0.030273 0.788086
vt 0.048828 0.794922
vt 0.050781 0.789062
vt 0.066406 0.793945
vt 0.035156 0.777344
vt 0.055664 0.777344
vt 0.039062 0.771484
vt 0.068359 0.788086
vt 0.088867 0.791992
vt 0.084961 0.777344
vt 0.095703 0.776367
vt 0.087891 0.787109
vt 0.071289 0.777344
vt 0.095703 0.791016
vt 0.097656 0.787109
vt 0.099609 0.781250
vt 0.102539 0.775391
vt 0.098633 0.771484
vt 0.106445 0.767578
vt 0.091797 0.772461
vt 0.082031 0.772461
vt 0.071289 0.772461
vt 0.057617 0.772461
vt 0.013916 0.813965
vt 0.013916 0.823242
vt 0.230469 0.813965
vt 0.230469 0.823242
vt 0.013916 0.835449
vt 0.230469 0.835449
vt 0.230469 0.842773
vt 0.013916 0.842773
vt 0.107422 0.932617
vt 0.054688 0.945312
vt 0.107422 0.960938
vt 0.158203 0.925781
vt 0.208984 0.921875
vt 0.493164 0.917969
vt 0.470703 0.946289
vt 0.496094 0.929688
vt 0.157227 0.966797
vt 0.208008 0.971680
vt 0.492188 0.975586
vt 0.496094 0.962891
vt 0.050781 0.789062
vt 0.055664 0.777344
vt 0.068359 0.788086
vt 0.071289 0.777344
vt 0.087891 0.787109
vt 0.084961 0.777344
vt 0.095703 0.776367
vt 0.066406 0.793945
vt 0.048828 0.794922
vt 0.088867 0.791992
vt 0.095703 0.791016
vt 0.097656 0.787109
vt 0.099609 0.781250
vt 0.102539 0.775391
vt 0.098633 0.771484
vt 0.106445 0.767578
vt 0.091797 0.772461
vt 0.082031 0.772461
vt 0.071289 0.772461
vt 0.057617 0.772461
vt 0.039062 0.771484
vt 0.035156 0.777344
vt 0.030273 0.788086
vt 0.028320 0.797852
vt 0.178711 0.766602
vt 0.160156 0.764648
vt 0.178711 0.769531
vt 0.194336 0.770508
vt 0.194336 0.767578
vt 0.204102 0.766602
vt 0.204102 0.772461
vt 0.214844 0.772461
vt 0.214844 0.767578
vt 0.224609 0.767578
vt 0.222656 0.764648
vt 0.230469 0.762695
vt 0.229492 0.758789
vt 0.014648 0.877441
vt 0.228516 0.877441
vt 0.014648 0.866211
vt 0.228516 0.866211
vt 0.167969 0.797852
vt 0.147461 0.797852
vt 0.166992 0.800781
vt 0.183594 0.801758
vt 0.184570 0.797852
vt 0.207031 0.802734
vt 0.207031 0.797852
vt 0.214844 0.802734
vt 0.215820 0.797852
vt 0.230469 0.823242
vt 0.013916 0.823242
vt 0.013916 0.835449
vt 0.230469 0.835449
vt 0.036133 0.900391
vt 0.041016 0.908203
vt 0.041016 0.916992
vt 0.036133 0.924805
vt 0.029297 0.896484
vt 0.029297 0.928711
vt 0.020508 0.896484
vt 0.020508 0.928711
vt 0.012695 0.900391
vt 0.012695 0.924805
vt 0.007812 0.908203
vt 0.007812 0.916992
vt 0.230469 0.762695
vt 0.229492 0.758789
vt 0.222656 0.764648
vt 0.224609 0.767578
vt 0.214844 0.767578
vt 0.214844 0.772461
vt 0.204102 0.766602
vt 0.204102 0.772461
vt 0.194336 0.767578
vt 0.194336 0.770508
vt 0.178711 0.769531
vt 0.178711 0.766602
vt 0.160156 0.764648
vt 0.215820 0.797852
vt 0.207031 0.797852
vt 0.214844 0.802734
vt 0.207031 0.802734
vt 0.184570 0.797852
vt 0.183594 0.801758
vt 0.167969 0.797852
vt 0.166992 0.800781
vt 0.147461 0.797852
vn 0.0000 -0.6565 -0.7543
vn -0.3598 -0.6550 -0.6644
vn 0.0267 0.0306 -0.9991
vn -0.2083 0.0637 -0.9760
vn 0.3115 0.0520 -0.9488
vn -0.4634 -0.0412 -0.8852
vn -0.6461 -0.6516 -0.3974
vn -0.8574 -0.0497 -0.5121
vn -0.7602 -0.6497 0.0000
vn -0.9999 0.0021 0.0135
vn -0.6461 -0.6516 0.3974
vn -0.8284 0.0962 0.5518
vn -0.3598 -0.6550 0.6644
vn -0.7736 0.4477 0.4484
vn -0.9695 0.1251 -0.2105
vn -0.7176 0.0135 -0.6963
vn -0.4800 0.1661 0.8614
vn 0.0000 -0.6565 0.7543
vn -0.0265 0.0704 0.9972
vn 0.3598 -0.6550 0.6644
vn 0.4663 -0.0053 0.8846
vn 0.6461 -0.6516 0.3974
vn 0.8546 -0.0028 0.5193
vn 0.7602 -0.6497 0.0000
vn 0.9993 0.0343 -0.0127
vn 0.6461 -0.6516 -0.3974
vn 0.8187 0.4755 -0.3220
vn 0.9403 0.0793 0.3310
vn 0.5262 0.0455 0.8491
vn 0.1263 0.0774 0.9890
vn -0.3562 0.0931 0.9297
vn 0.8344 0.0982 -0.5423
vn 0.3598 -0.6550 -0.6644
vn 0.4868 0.1399 -0.8622
vn 0.5719 0.7143 -0.4033
vn 0.3233 0.2514 0.9123
vn -0.0330 0.1032 0.9941
vn 0.6621 0.0837 0.7447
vn 0.2417 0.4020 0.8832
vn -0.2311 0.1930 0.9536
vn 0.2047 0.4155 0.8862
vn -0.2105 0.2131 0.9541
vn -0.7754 -0.2195 0.5922
vn -0.5984 -0.2508 0.7609
vn -0.7556 -0.2109 0.6201
vn 0.2665 0.2013 0.9426
vn 0.9639 0.2048 -0.1698
vn -0.2362 0.0852 0.9679
vn -0.9767 -0.1984 -0.0811
vn 0.9092 0.3962 -0.1281
vn 0.8947 0.3280 0.3034
vn 0.7792 0.4822 0.4004
vn 0.7721 0.5262 0.3562
vn 0.7643 0.5208 0.3801
vn 0.9870 -0.1607 0.0010
vn 0.1756 0.0973 -0.9796
vn 1.0000 -0.0016 0.0003
vn 0.1769 -0.0001 -0.9842
vn -0.2764 -0.0483 -0.9598
vn -0.1877 0.1782 -0.9659
vn -0.9752 -0.2212 -0.0003
vn -0.9741 0.2175 0.0615
vn -0.8492 0.4995 0.1713
vn -0.6776 0.1416 -0.7216
vn -0.8835 0.3596 -0.3000
vn -0.7861 0.4273 -0.4466
vn -0.3528 0.2196 -0.9095
vn -0.0284 0.1024 -0.9943
vn -0.2205 0.3324 -0.9170
vn 0.1695 0.2271 -0.9590
vn 0.7385 -0.1940 -0.6457
vn 0.7260 -0.1977 -0.6587
vn 0.1582 0.1860 -0.9697
vn -0.1678 0.3733 -0.9124
vn 0.5018 -0.2222 -0.8359
vn -0.7121 0.4880 -0.5048
vn -0.7189 0.4752 -0.5072
vn -0.1811 0.0356 -0.9828
vn 0.0000 0.0490 -0.9988
vn 0.1811 0.0356 -0.9828
vn 0.1776 0.0191 -0.9839
vn -0.1776 0.0191 -0.9839
vn -0.9942 0.1071 0.0000
vn -0.9827 0.1853 0.0000
vn -0.9769 0.2138 0.0000
vn 0.0000 1.0000 0.0000
vn 0.9769 0.2138 0.0000
vn 0.9827 0.1853 0.0000
vn 0.9942 0.1071 0.0000
vn -0.0005 -0.0485 -0.9988
vn 0.2717 -0.0518 -0.9610
vn -0.1767 -0.0008 -0.9843
vn -0.1816 0.0083 -0.9833
vn 0.1816 0.0083 -0.9833
vn -0.9989 0.0459 0.0000
vn -1.0000 0.0007 -0.0004
vn 0.9692 -0.2460 -0.0001
vn -0.0629 -0.9980 0.0000
vn 0.9989 0.0459 0.0000
vn -0.0472 0.9832 -0.1759
vn 0.5485 0.8072 0.2181
vn 0.3140 0.6134 0.7247
vn -0.6136 0.7481 -0.2525
vn -0.3126 0.6680 -0.6753
vn 0.4034 0.6365 0.6573
vn -0.2077 0.6167 -0.7592
vn 0.6653 0.7066 0.2410
vn -0.0116 0.9646 0.2634
vn -0.4393 0.8498 -0.2912
vn -0.1826 -0.1794 -0.9667
vn -0.7406 -0.5139 -0.4329
vn -0.1827 -0.3511 -0.9183
vn -0.7385 -0.5129 -0.4376
vn 0.2288 -0.0988 -0.9684
vn 0.2478 -0.1583 -0.9557
vn -0.1678 -0.3494 -0.9218
vn -0.7552 -0.5159 -0.4043
vn -0.0434 -0.1536 -0.9872
vn -0.5799 0.0677 -0.8119
vn -0.1502 -0.2512 -0.9562
vn 0.1539 -0.1682 -0.9737
vn -0.3110 0.6521 -0.6914
vn 0.3787 0.4117 -0.8289
vn 0.6179 0.2412 -0.7483
vn 0.7252 0.2421 -0.6445
vn 0.7766 0.2165 -0.5916
vn -0.1811 0.0355 0.9828
vn 0.0000 0.0490 0.9988
vn 0.1811 0.0356 0.9828
vn -0.1776 0.0191 0.9839
vn -0.1816 0.0083 0.9833
vn -0.1767 0.0006 0.9843
vn -0.0005 -0.0485 0.9988
vn 0.2720 -0.0508 0.9609
vn 0.1776 0.0191 0.9839
vn 0.1816 0.0083 0.9833
vn 0.1772 -0.0005 0.9842
vn -0.2760 -0.0477 0.9600
vn 0.1202 -0.3370 0.9338
vn -0.1631 -0.1554 0.9743
vn 0.2087 -0.3447 0.9152
vn -0.1307 -0.1222 0.9838
vn 0.3894 -0.2929 0.8733
vn 0.0965 -0.0856 0.9916
vn 0.6095 0.0320 0.7921
vn 0.7380 -0.5306 0.4168
vn 0.6981 -0.5207 0.4914
vn 0.8478 -0.5249 0.0747
vn 0.3064 0.6527 0.6928
vn -0.2955 0.4565 0.8392
vn -0.6670 0.3223 0.6717
vn -0.7566 0.3037 0.5791
vn -0.7696 0.2369 0.5929
vn -0.2327 -0.1042 0.9669
vn 0.2101 -0.1685 0.9630
usemtl TheVileblade
s 1
f 28/1/1 30/2/2 6/3/3
f 7/4/4 5/5/5 6/3/3
f 8/6/6 7/4/4 6/3/3
f 30/2/2 8/6/6 6/3/3
f 30/2/2 32/7/7 8/6/6
f 32/7/7 10/8/8 8/6/6
f 32/7/7 33/9/9 10/8/8
f 33/9/9 12/10/10 10/8/8
f 33/9/9 31/11/11 12/10/10
f 31/11/11 34/12/12 12/10/10
f 31/11/11 29/13/13 34/12/12
f 154/14/14 12/10/10 34/12/12
f 11/15/15 12/10/10 154/14/14
f 12/10/10 11/15/15 10/8/8
f 11/15/15 9/16/16 10/8/8
f 10/8/8 9/16/16 8/6/6
f 9/16/16 7/4/4 8/6/6
f 29/13/13 16/17/17 34/12/12
f 29/13/13 27/18/18 16/17/17
f 27/18/18 15/19/19 16/17/17
f 27/18/18 25/20/20 15/19/19
f 25/20/20 18/21/21 15/19/19
f 25/20/20 23/22/22 18/21/21
f 23/22/22 20/23/23 18/21/21
f 23/22/22 22/24/24 20/23/23
f 22/24/24 21/25/25 20/23/23
f 22/24/24 24/26/26 21/25/25
f 21/25/25 1/27/27 19/28/28
f 20/23/23 21/25/25 19/28/28
f 20/23/23 19/28/28 17/29/29
f 18/21/21 20/23/23 17/29/29
f 18/21/21 17/29/29 13/30/30
f 15/19/19 18/21/21 13/30/30
f 15/19/19 13/30/30 14/31/31
f 16/17/17 15/19/19 14/31/31
f 14/31/31 154/14/14 16/17/17
f 16/17/17 154/14/14 34/12/12
f 24/26/26 2/32/32 21/25/25
f 24/26/26 26/33/33 2/32/32
f 26/33/33 4/34/34 2/32/32
f 26/33/33 28/35/1 4/34/34
f 28/35/1 6/36/3 4/34/34
f 6/36/3 5/37/5 4/34/34
f 5/37/5 3/38/35 4/34/34
f 4/34/34 3/38/35 2/32/32
f 3/38/35 1/27/27 2/32/32
f 1/27/27 21/25/25 2/32/32
f 112/39/36 111/40/37 110/41/38
f 112/39/36 98/42/39 111/40/37
f 98/42/39 99/43/40 111/40/37
f 99/43/40 98/42/39 94/44/41
f 95/45/42 99/43/40 94/44/41
f 103/46/43 99/43/40 95/45/42
f 103/46/43 115/47/44 99/43/40
f 115/47/44 111/40/37 99/43/40
f 115/47/44 14/48/31 111/40/37
f 14/48/31 13/49/30 111/40/37
f 17/50/29 111/40/37 13/49/30
f 111/40/37 17/50/29 110/41/38
f 19/51/28 110/41/38 17/50/29
f 102/52/45 103/46/43 95/45/42
f 52/53/46 94/44/41 63/54/47
f 95/45/42 94/44/41 52/53/46
f 50/55/48 95/45/42 52/53/46
f 102/52/45 95/45/42 50/55/48
f 61/56/49 102/52/45 50/55/48
f 19/51/28 1/57/27 114/58/50
f 19/51/28 114/58/50 110/41/38
f 114/58/50 113/59/51 110/41/38
f 112/39/36 110/41/38 113/59/51
f 116/60/52 112/39/36 113/59/51
f 112/39/36 116/60/52 105/61/53
f 98/42/39 112/39/36 105/61/53
f 105/61/53 104/62/54 98/42/39
f 104/62/54 94/44/41 98/42/39
f 94/44/41 104/62/54 63/54/47
f 69/63/55 89/64/56 68/65/57
f 89/64/56 88/66/58 68/65/57
f 90/67/59 88/66/58 89/64/56
f 91/68/60 90/67/59 89/64/56
f 66/69/61 90/67/59 91/68/60
f 67/70/62 66/69/61 91/68/60
f 11/71/15 154/72/14 142/73/63
f 9/74/16 141/75/64 7/76/4
f 11/71/15 141/75/64 9/74/16
f 11/71/15 142/73/63 141/75/64
f 142/73/63 140/77/65 141/75/64
f 143/78/66 144/79/67 140/77/65
f 144/79/67 141/75/64 140/77/65
f 144/79/67 145/80/68 141/75/64
f 145/80/68 7/76/4 141/75/64
f 5/81/5 7/76/4 145/80/68
f 144/79/67 123/82/69 145/80/68
f 120/83/70 131/84/71 132/85/72
f 124/86/73 120/83/70 132/85/72
f 120/83/70 124/86/73 119/87/74
f 124/86/73 123/82/69 119/87/74
f 123/82/69 124/86/73 145/80/68
f 145/80/68 124/86/73 146/88/75
f 146/88/75 5/81/5 145/80/68
f 124/86/73 132/85/72 146/88/75
f 89/89/56 69/90/55 131/84/71
f 120/83/70 89/89/56 131/84/71
f 89/89/56 120/83/70 91/91/60
f 120/83/70 119/87/74 91/91/60
f 91/91/60 119/87/74 67/92/62
f 119/87/74 129/93/76 67/92/62
f 129/93/76 119/87/74 123/82/69
f 130/94/77 129/93/76 123/82/69
f 123/82/69 144/79/67 130/94/77
f 144/79/67 143/78/66 130/94/77
f 87/95/78 93/96/79 86/97/80
f 86/97/80 80/98/81 81/99/82
f 87/95/78 86/97/80 81/99/82
f 87/95/78 81/99/82 77/100/83
f 76/101/84 87/95/78 77/100/83
f 93/96/79 87/95/78 76/101/84
f 75/102/85 93/96/79 76/101/84
f 155/103/86 93/96/79 75/102/85
f 155/103/86 73/104/87 93/96/79
f 73/104/87 72/105/88 93/96/79
f 72/105/88 86/97/80 93/96/79
f 72/105/88 71/106/89 86/97/80
f 92/107/90 84/108/91 85/109/92
f 92/107/90 85/109/92 79/110/93
f 78/111/94 92/107/90 79/110/93
f 80/98/81 78/111/94 79/110/93
f 81/99/82 80/98/81 79/110/93
f 77/100/83 81/99/82 79/110/93
f 60/112/95 77/100/83 79/110/93
f 60/112/95 79/110/93 59/113/96
f 79/110/93 85/109/92 59/113/96
f 62/114/97 84/108/91 64/115/98
f 84/108/91 92/107/90 64/115/98
f 92/107/90 90/116/59 64/115/98
f 88/117/58 90/116/59 92/107/90
f 88/117/58 92/107/90 78/111/94
f 88/117/58 78/111/94 68/118/57
f 78/111/94 70/119/99 68/118/57
f 70/119/99 78/111/94 71/106/89
f 78/111/94 80/98/81 71/106/89
f 71/106/89 80/98/81 86/97/80
f 90/116/59 66/120/61 64/115/98
f 36/121/100 1/122/27 3/123/35
f 5/124/5 38/125/101 3/123/35
f 38/125/101 36/121/100 3/123/35
f 38/125/101 37/126/102 36/121/100
f 37/126/102 35/127/103 36/121/100
f 39/128/104 35/127/103 37/126/102
f 40/129/105 39/128/104 37/126/102
f 43/130/106 39/128/104 40/129/105
f 41/131/107 43/130/106 40/129/105
f 43/130/106 41/131/107 42/132/108
f 44/133/109 43/130/106 42/132/108
f 44/133/109 42/132/108 14/134/31
f 42/132/108 154/135/14 14/134/31
f 61/136/49 83/137/110 125/138/111
f 125/138/111 118/139/112 126/140/113
f 83/137/110 118/139/112 125/138/111
f 83/137/110 82/141/114 118/139/112
f 117/142/115 82/141/114 63/143/47
f 82/141/114 117/142/115 118/139/112
f 118/139/112 117/142/115 122/144/116
f 118/139/112 122/144/116 126/140/113
f 139/145/117 126/140/113 122/144/116
f 135/146/118 134/147/119 133/148/120
f 135/146/118 133/148/120 121/149/121
f 133/148/120 122/144/116 121/149/121
f 117/142/115 121/149/121 122/144/116
f 133/148/120 139/145/117 122/144/116
f 139/145/117 133/148/120 44/150/109
f 133/148/120 43/151/106 44/150/109
f 43/151/106 133/148/120 39/152/104
f 134/147/119 39/152/104 133/148/120
f 35/153/103 39/152/104 134/147/119
f 35/153/103 137/154/122 36/155/100
f 35/153/103 134/147/119 137/154/122
f 134/147/119 136/156/123 137/154/122
f 134/147/119 135/146/118 136/156/123
f 135/146/118 138/157/124 136/156/123
f 135/146/118 121/149/121 138/157/124
f 121/149/121 128/158/125 138/157/124
f 128/158/125 121/149/121 127/159/126
f 121/149/121 117/142/115 127/159/126
f 127/159/126 117/142/115 63/143/47
f 59/160/96 85/161/92 61/162/49
f 85/161/92 83/163/110 61/162/49
f 85/161/92 84/164/91 83/163/110
f 84/164/91 82/165/114 83/163/110
f 82/165/114 84/164/91 63/166/47
f 84/164/91 62/167/97 63/166/47
f 53/168/127 74/169/128 76/101/84
f 53/168/127 76/101/84 77/100/83
f 74/169/128 75/102/85 76/101/84
f 155/103/86 75/102/85 74/169/128
f 155/103/86 74/169/128 73/104/87
f 72/105/88 73/104/87 74/169/128
f 54/170/129 72/105/88 74/169/128
f 74/169/128 53/168/127 54/170/129
f 54/170/129 53/168/127 45/171/130
f 45/171/130 53/168/127 77/100/83
f 45/171/130 77/100/83 46/172/131
f 77/100/83 60/112/95 46/172/131
f 60/112/95 59/113/96 46/172/131
f 59/113/96 49/173/132 46/172/131
f 49/173/132 65/174/133 46/172/131
f 49/173/132 51/175/134 65/174/133
f 65/174/133 51/175/134 64/115/98
f 51/175/134 62/114/97 64/115/98
f 71/106/89 72/105/88 54/170/129
f 47/176/135 71/106/89 54/170/129
f 47/176/135 54/170/129 45/171/130
f 47/176/135 45/171/130 46/172/131
f 48/177/136 47/176/135 46/172/131
f 48/177/136 46/172/131 65/174/133
f 65/174/133 58/178/137 48/177/136
f 65/174/133 57/179/138 58/178/137
f 65/174/133 64/115/98 57/179/138
f 64/115/98 66/120/61 57/179/138
f 47/176/135 48/177/136 71/106/89
f 48/177/136 70/119/99 71/106/89
f 68/118/57 70/119/99 48/177/136
f 58/178/137 68/118/57 48/177/136
f 97/180/139 96/181/140 101/182/141
f 96/181/140 100/183/142 101/182/141
f 147/184/143 101/182/141 100/183/142
f 149/185/144 147/184/143 100/183/142
f 149/185/144 148/186/145 147/184/143
f 109/187/146 108/188/147 97/180/139
f 101/182/141 109/187/146 97/180/139
f 153/189/148 109/187/146 101/182/141
f 147/184/143 153/189/148 101/182/141
f 153/189/148 147/184/143 38/190/101
f 147/184/143 37/191/102 38/190/101
f 37/191/102 147/184/143 40/192/105
f 148/186/145 40/192/105 147/184/143
f 41/193/107 40/192/105 148/186/145
f 41/193/107 151/194/149 42/195/108
f 41/193/107 148/186/145 151/194/149
f 148/186/145 150/196/150 151/194/149
f 148/186/145 149/185/144 150/196/150
f 149/185/144 152/197/151 150/196/150
f 152/197/151 149/185/144 100/183/142
f 107/198/152 152/197/151 100/183/142
f 106/199/153 107/198/152 100/183/142
f 96/181/140 106/199/153 100/183/142
f 67/200/62 106/199/153 96/181/140
f 55/201/154 67/200/62 96/181/140
f 55/201/154 96/181/140 97/180/139
f 56/202/155 55/201/154 97/180/139
f 97/180/139 108/188/147 56/202/155
f 108/188/147 69/203/55 56/202/155
f 127/204/126 63/205/47 104/206/54
f 104/206/54 105/207/53 127/204/126
f 105/207/53 128/208/125 127/204/126
f 128/208/125 105/207/53 138/209/124
f 105/207/53 116/210/52 138/209/124
f 138/209/124 116/210/52 113/211/51
f 136/212/123 138/209/124 113/211/51
f 113/211/51 114/213/50 136/212/123
f 114/213/50 137/214/122 136/212/123
f 114/213/50 1/215/27 137/214/122
f 1/215/27 36/216/100 137/214/122
f 69/63/55 68/65/57 58/217/137
f 56/218/155 69/63/55 58/217/137
f 58/217/137 57/219/138 56/218/155
f 57/219/138 55/220/154 56/218/155
f 55/220/154 57/219/138 67/70/62
f 57/219/138 66/69/61 67/70/62
f 102/221/45 61/222/49 125/223/111
f 125/223/111 126/224/113 102/221/45
f 126/224/113 103/225/43 102/221/45
f 126/224/113 139/226/117 103/225/43
f 139/226/117 115/227/44 103/225/43
f 139/226/117 44/228/109 115/227/44
f 44/228/109 14/229/31 115/227/44
f 59/160/96 61/162/49 50/230/48
f 49/231/132 59/160/96 50/230/48
f 51/232/134 49/231/132 50/230/48
f 52/233/46 51/232/134 50/230/48
f 62/167/97 51/232/134 52/233/46
f 63/166/47 62/167/97 52/233/46
f 24/234/26 22/235/24 23/236/22
f 25/237/20 24/234/26 23/236/22
f 26/238/33 24/234/26 25/237/20
f 27/239/18 26/238/33 25/237/20
f 28/240/1 26/238/33 27/239/18
f 29/241/13 28/240/1 27/239/18
f 30/242/2 28/240/1 29/241/13
f 31/243/11 30/242/2 29/241/13
f 32/244/7 30/242/2 31/243/11
f 33/245/9 32/244/7 31/243/11
f 154/246/14 42/247/108 151/248/149
f 142/249/63 154/246/14 151/248/149
f 142/249/63 151/248/149 150/250/150
f 140/251/65 142/249/63 150/250/150
f 150/250/150 152/252/151 140/251/65
f 152/252/151 143/253/66 140/251/65
f 143/253/66 152/252/151 107/254/152
f 130/255/77 143/253/66 107/254/152
f 130/255/77 107/254/152 129/256/76
f 107/254/152 106/257/153 129/256/76
f 129/256/76 106/257/153 67/258/62
f 5/259/5 146/260/75 38/261/101
f 146/260/75 153/262/148 38/261/101
f 146/260/75 132/263/72 153/262/148
f 132/263/72 109/264/146 153/262/148
f 109/264/146 132/263/72 131/265/71
f 108/266/147 109/264/146 131/265/71
f 131/265/71 69/267/55 108/266/147
